<?xml version="1.0" encoding="UTF-8" standalone="no"?>
<!DOCTYPE svg PUBLIC "-//W3C//DTD SVG 1.1//EN" "http://www.w3.org/Graphics/SVG/1.1/DTD/svg11.dtd">
<svg width="100%" height="100%" viewBox="0 0 160 120" version="1.1" xmlns="http://www.w3.org/2000/svg" xmlns:xlink="http://www.w3.org/1999/xlink" xml:space="preserve" xmlns:serif="http://www.serif.com/" style="fill-rule:evenodd;clip-rule:evenodd;stroke-linejoin:round;stroke-miterlimit:1.41421;">
    <g id="Artboard1" transform="matrix(1,0,0,0.745147,0,0)">
        <rect x="0" y="0" width="160" height="160" style="fill:none;"/>
        <clipPath id="_clip1">
            <rect x="0" y="0" width="160" height="160"/>
        </clipPath>
        <g clip-path="url(#_clip1)">
            <g transform="matrix(1,0,0,1.34202,0,-46.1446)">
                <path d="M159.1,150.2L1.1,150.2C0.5,150.2 0.1,149.8 0.1,149.2C0.1,148.6 0.5,148.2 1.1,148.2L159.1,148.2C159.7,148.2 160.1,148.6 160.1,149.2C160.1,149.8 159.7,150.2 159.1,150.2Z" style="fill:white;fill-rule:nonzero;"/>
            </g>
            <g transform="matrix(1,0,0,1.34202,0,0)">
                <path d="M159,89.8L153.1,89.8L153.1,56.2L153.1,43.1L154,44C154.6,44.6 155.3,44.9 156.2,44.9C157,44.9 157.8,44.6 158.4,44L159.1,43.3C159.7,42.7 160,41.9 160,41.1C159.9,40.3 159.5,39.6 159,39.1L120,0.9C119.3,0.2 118.5,0 117.6,0C116.7,-0.1 115.9,0.2 115.2,0.9L76.1,39C75.5,39.5 75.2,40.2 75.2,41C75.2,41.8 75.5,42.6 76.1,43.2L76.8,43.9C77.4,44.6 78.1,44.9 79,44.9C79.9,44.9 80.6,44.6 81.1,44L82.1,43L82.1,72.6C82.3,72.5 82.6,72.5 82.9,72.5C83.4,72.5 83.8,72.6 84.1,72.8L84.1,41.1L88.4,36.9L146.7,36.9L151.1,41.2L151.1,89.7L143.8,89.7L143.8,80.7L143.8,52.9C143.8,51.9 142.8,50.9 141.8,50.9L124.8,50.9C123.8,50.9 122.8,51.9 122.8,52.9L122.8,89.8L112,89.8C111.4,89.8 111,90.2 111,90.8C111,91.4 111.4,91.8 112,91.8L159,91.8C159.6,91.8 160,91.4 160,90.8C160,90.2 159.6,89.8 159,89.8ZM90.5,34.9L117.6,8.4L144.7,34.9L90.5,34.9ZM119,7.1L117.6,5.7L116.2,7.1L79.7,42.6C79.3,43 78.6,43 78.2,42.6L77.5,41.9C77.3,41.7 77.2,41.4 77.2,41.1C77.2,41 77.2,40.7 77.5,40.5L116.6,2.3C116.7,2.2 116.8,2.2 116.9,2.1C117,2.1 117.1,2 117.2,2C117.4,2 117.7,1.9 118,2C118.1,2 118.3,2.1 118.5,2.3L118.9,2.7L120.9,4.6L157.6,40.6C157.8,40.8 157.9,41 157.9,41.2C157.9,41.4 157.8,41.7 157.6,41.9L156.9,42.6C156.5,43 155.8,43 155.4,42.6L119,7.1ZM124.7,84.4L124.7,52.9L141.7,52.9L141.7,89.7L124.7,89.7L124.7,84.4Z" style="fill:white;fill-rule:nonzero;"/>
            </g>
            <g transform="matrix(1,0,0,1.34202,0,0)">
                <path d="M110.6,72L93.6,72C92.5,72 91.6,71.1 91.6,70L91.6,53C91.6,51.9 92.5,51 93.6,51L110.6,51C111.7,51 112.6,51.9 112.6,53L112.6,70C112.6,71.1 111.7,72 110.6,72ZM110.6,70L110.6,71L110.6,70ZM93.6,53L93.6,70L110.6,70L110.6,53L93.6,53Z" style="fill:white;fill-rule:nonzero;"/>
            </g>
            <g transform="matrix(1,0,0,1.34202,0,0)">
                <path d="M59.6,13.4L59,12.9L58.4,13.4C57.8,13.9 44.9,25.2 46,39.3C46.5,45.7 51.6,50.8 58,51.3L58,69.5C58.3,69.4 58.6,69.3 59,69.3C59.4,69.3 59.7,69.4 60,69.5L60,54.9L60,51.3C66.4,50.8 71.5,45.7 72,39.3C72.9,23.3 60.1,13.8 59.6,13.4ZM60,49.2L60,44.7L65.6,41C66.1,40.7 66.2,40.1 65.9,39.6C65.6,39.1 65,39 64.5,39.3L60.1,42.3L60.1,33.2C60.1,32.6 59.7,32.2 59.1,32.2C58.5,32.2 58.1,32.6 58.1,33.2L58.1,36.6L53.5,34.3C53,34.1 52.4,34.3 52.2,34.7C52,35.2 52.2,35.8 52.6,36L58,38.7L58,49.2C52.4,48.7 48,44 48,38.3C47.6,27.3 56.6,17.9 59.1,15.5C61.5,17.6 70.4,25.9 70,38.3C70,44 65.6,48.7 60,49.2Z" style="fill:rgb(146,220,124);fill-rule:nonzero;"/>
            </g>
            <g transform="matrix(1,0,0,1.34202,0,0)">
                <path d="M36.5,47C27.4,47 20,54.4 20,63.5C20,66.5 20.9,69.5 22.4,72C15.2,72.4 9.6,77 9.3,77.2C-3.6,88.8 5.4,106.3 5.4,106.4C5.6,106.7 5.9,106.9 6.3,106.9C6.5,106.9 6.6,106.9 6.8,106.8C7.3,106.5 7.5,105.9 7.2,105.4C7.2,105.4 5,101.3 4.4,95.9C3.7,89 5.8,83.2 10.6,78.8C10.7,78.7 16.7,73.7 23.8,74C24.3,74.6 24.8,75.1 25.3,75.6C25.5,75.8 25.7,75.9 26,75.9C26.3,75.9 26.5,75.8 26.7,75.6C27.1,75.2 27,74.6 26.6,74.2C23.6,71.5 21.9,67.6 21.9,63.5C21.9,55.5 28.4,49 36.4,49C44.4,49 51,55.5 51,63.5C51,66.8 49.9,69.8 48,72.4C47.7,72.8 47.7,73.5 48.2,73.8C48.6,74.1 49.3,74.1 49.6,73.6C51.9,70.7 53.1,67.2 53.1,63.5C53,54.4 45.6,47 36.5,47Z" style="fill:white;fill-rule:nonzero;"/>
                <path d="M15,49C18.3,49 21,46.3 21,43C21,39.7 18.3,37 15,37C11.7,37 9,39.7 9,43C9,46.3 11.7,49 15,49ZM15,39C17.2,39 19,40.8 19,43C19,45.2 17.2,47 15,47C12.8,47 11,45.2 11,43C11,40.8 12.8,39 15,39Z" style="fill:rgb(146,220,124);fill-rule:nonzero;"/>
                <path d="M86.8,71.7C83.4,71 79.9,71.3 76.8,72.4C76.4,71.9 71.3,65.8 63.9,67.1C56.3,68.3 54.2,73.5 54.1,73.7C53.9,74.2 54.1,74.8 54.7,75C54.8,75 54.9,75.1 55.1,75.1C55.5,75.1 55.9,74.9 56,74.5C56,74.5 57.8,70.2 64.2,69.1C69.5,68.2 73.6,71.9 74.8,73.3C72.7,74.3 70.8,75.7 69.2,77.5C69,77.7 68.9,77.9 68.9,78.2C68.9,78.7 69.3,79.2 69.9,79.2C70.2,79.2 70.5,79 70.7,78.8C74.5,74.5 80.6,72.6 86.4,73.8C95.3,75.6 101.1,84 99.4,92.5C99.1,94 98.6,95.4 97.9,96.7C97.6,97.2 97.8,97.8 98.3,98.1C98.5,98.2 98.6,98.2 98.8,98.2C99.2,98.2 99.5,98 99.7,97.7C100.5,96.2 101.1,94.6 101.4,93C103.3,83.2 96.8,73.7 86.8,71.7Z" style="fill:white;fill-rule:nonzero;"/>
            </g>
        </g>
    </g>
</svg>
